<svg id="logo" xmlns="http://www.w3.org/2000/svg" width="277" height="228.375" viewBox="0 0 277 228.375">
  <metadata><?xpacket begin="﻿" id="W5M0MpCehiHzreSzNTczkc9d"?>
<x:xmpmeta xmlns:x="adobe:ns:meta/" x:xmptk="Adobe XMP Core 5.6-c142 79.160924, 2017/07/13-01:06:39        ">
   <rdf:RDF xmlns:rdf="http://www.w3.org/1999/02/22-rdf-syntax-ns#">
      <rdf:Description rdf:about=""/>
   </rdf:RDF>
</x:xmpmeta>
                                                                                                    
                                                                                                    
                                                                                                    
                                                                                                    
                                                                                                    
                                                                                                    
                                                                                                    
                                                                                                    
                                                                                                    
                                                                                                    
                                                                                                    
                                                                                                    
                                                                                                    
                                                                                                    
                                                                                                    
                                                                                                    
                                                                                                    
                                                                                                    
                                                                                                    
                                                                                                    
                           
<?xpacket end="w"?></metadata>
<defs>
    <style>
      .cls-1 {
        fill: #b8b935;
      }

      .cls-1, .cls-2 {
        fill-rule: evenodd;
      }

      .cls-2 {
        fill: #ccd336;
      }
    </style>
  </defs>
  <path id="Forma_2" data-name="Forma 2" class="cls-1" d="M799,348l-1-77s-40.949,29.956-41,30c-6.344,5.547-6.332,8.386-5,17,0.015,0.094,13.953,44.959,14,45,3.734,3.25,4.984,3.688,8,2C774.1,364.945,799,348,799,348Z" transform="translate(-520 -214.625)"/>
  <path id="Forma_2_cópia" data-name="Forma 2 cópia" class="cls-2" d="M807,352l-1-77s-40.949,29.956-41,30c-6.344,5.547-6.332,8.386-5,17,0.014,0.094,13.953,44.959,14,45,3.734,3.25,4.984,3.688,8,2C782.1,368.945,807,352,807,352Z" transform="translate(-520 -214.625)"/>
  <path id="Forma_1_cópia" data-name="Forma 1 cópia" class="cls-1" d="M663,443s30.648-28.2,34.509-30.244,9.463,0.454,10.019,2.42S722,443,722,443" transform="translate(-520 -214.625)"/>
  <path id="Forma_1" data-name="Forma 1" class="cls-2" d="M674,443s27.531-23.313,31-25,8.5,0.375,9,2,13,23,13,23" transform="translate(-520 -214.625)"/>
  <path id="Retângulo_3" data-name="Retângulo 3" class="cls-1" d="M576.428,397.548L523.85,339.9c-5.191-5.692-5.1-13.392.319-17.018l75.324-50.437c4.871-3.261,11.785-.707,15.379,5.525l36.76,63.741c2.56,4.44,1.5,10.287-2.343,13.168L590.522,398.98A10.711,10.711,0,0,1,576.428,397.548Z" transform="translate(-520 -214.625)"/>
  <path id="Retângulo_4" data-name="Retângulo 4" class="cls-1" d="M630.076,258.492l63-42.087c5.669-3.786,12.053-1.306,14.237,5.346l22.667,69.021c1.555,4.734-.87,11.176-5.406,14.5l-50.04,36.715c-4.838,3.549-10.724,3.015-13.176-1.305L625.343,277.23C621.845,271.066,623.939,262.591,630.076,258.492Z" transform="translate(-520 -214.625)"/>
  <path id="Retângulo_4_copiar" data-name="Retângulo 4 copiar" class="cls-2" d="M637.076,261.492l63-42.087c5.669-3.786,12.053-1.306,14.237,5.346l22.667,69.021c1.555,4.734-.87,11.176-5.406,14.5l-50.04,36.715c-4.838,3.549-10.724,3.015-13.176-1.305L632.343,280.23C628.845,274.066,630.939,265.591,637.076,261.492Z" transform="translate(-520 -214.625)"/>
  <path id="Retângulo_5" data-name="Retângulo 5" class="cls-1" d="M681.722,351.624l49.408-37.971c5.261-4.043,11.636-.36,14.137,7.833L757.3,360.891c1.842,6.037-.133,13.455-4.352,16.805l-39.5,31.351c-4.336,3.442-10.283,2.209-13.392-2.959L679.7,372.254C675.46,365.2,676.28,355.806,681.722,351.624Z" transform="translate(-520 -214.625)"/>
  <path id="Retângulo_5_copiar" data-name="Retângulo 5 copiar" class="cls-2" d="M688.981,355.687l49.18-37.373c5.237-3.979,11.582-.354,14.071,7.71l11.973,38.783c1.834,5.942-.131,13.243-4.332,16.539L720.557,412.2c-4.315,3.387-10.235,2.174-13.329-2.913l-20.256-33.3C682.748,369.047,683.565,359.8,688.981,355.687Z" transform="translate(-520 -214.625)"/>
  <path id="Retângulo_3_copiar" data-name="Retângulo 3 copiar" class="cls-2" d="M583.745,401.341l-52.553-57.459c-5.189-5.673-5.1-13.347.318-16.961L606.8,276.654c4.869-3.251,11.78-.7,15.372,5.506l36.743,63.527c2.559,4.425,1.5,10.252-2.342,13.124l-58.739,43.957A10.73,10.73,0,0,1,583.745,401.341Z" transform="translate(-520 -214.625)"/>
</svg>
